<svg id="Livello_1" data-name="Livello 1" xmlns="http://www.w3.org/2000/svg" viewBox="0 0 248.83 251.56"><defs><style>.cls-1{fill:#483a8f;}</style></defs><title>Replica</title><path class="cls-1" d="M124.24,95a38.44,38.44,0,0,0,25.5-9.7C164.11,72.67,176.65,58,189.46,44.74l-5.05-5a24.08,24.08,0,0,0-33.95-.06L129,60.85s-4.77,5.31-10.14,0L97.45,39.64a24.09,24.09,0,0,0-34,.06l-5.05,5C71.25,58,83.8,72.67,98.16,85.3A38.82,38.82,0,0,0,123.81,95Z"/><circle class="cls-1" cx="123.95" cy="24.33" r="19.16"/><path class="cls-1" d="M123.67,155.64a38.49,38.49,0,0,0-25.51,9.69C83.8,178,71.25,192.66,58.44,205.9l5.05,5a24.08,24.08,0,0,0,34,.07l21.43-21.21s4.78-5.31,10.14,0L150.46,211a24.07,24.07,0,0,0,33.95-.07l5.05-5c-12.81-13.24-25.35-27.94-39.72-40.57a38.86,38.86,0,0,0-25.65-9.69Z"/><circle class="cls-1" cx="123.95" cy="226.3" r="19.16"/><path class="cls-1" d="M154.27,125.6a38.45,38.45,0,0,0,9.7,25.51c12.63,14.36,27.32,26.91,40.56,39.72l5-5.05a24.09,24.09,0,0,0,.06-34l-21.21-21.43s-5.3-4.78,0-10.14l21.21-21.44a24.08,24.08,0,0,0-.06-33.95l-5-5C191.29,72.62,176.6,85.17,164,99.53a38.82,38.82,0,0,0-9.7,25.65Z"/><circle class="cls-1" cx="224.94" cy="125.32" r="19.16"/><path class="cls-1" d="M93.63,125a38.48,38.48,0,0,0-9.69-25.5C71.31,85.17,56.61,72.62,43.37,59.81l-5,5a24.07,24.07,0,0,0-.07,34l21.21,21.44s5.31,4.77,0,10.14c-7.08,7.16-14.18,14.34-21.21,21.43a24.08,24.08,0,0,0,.07,34l5,5.05C56.61,178,71.31,165.47,83.94,151.11a38.86,38.86,0,0,0,9.69-25.65Z"/><circle class="cls-1" cx="22.97" cy="125.32" r="19.16"/></svg>